<?xml version="1.0" encoding="UTF-8" standalone="no"?>
<!DOCTYPE svg PUBLIC "-//W3C//DTD SVG 1.1//EN" "http://www.w3.org/Graphics/SVG/1.1/DTD/svg11.dtd">
<svg width="100%" height="100%" viewBox="0 0 4500 4500" version="1.1" xmlns="http://www.w3.org/2000/svg" xmlns:xlink="http://www.w3.org/1999/xlink" xml:space="preserve" xmlns:serif="http://www.serif.com/" style="fill-rule:evenodd;clip-rule:evenodd;stroke-miterlimit:10;">
    <g id="Page-1" serif:id="Page 1" transform="matrix(4.166667,0,0,4.166667,0,0)">
        <rect x="0" y="0" width="1080" height="1080" style="fill:none;"/>
        <g id="Layer-1" serif:id="Layer 1">
            <g transform="matrix(1,0,0,1,482.8495,491.9293)">
                <path d="M0,-273.983L-87.405,-273.983L62.193,0L201.706,-273.983L165.129,-273.983L57.15,-51.754L-56.797,-254.165L-33.197,-254.165L57.15,-86.245L149.247,-273.983L132.908,-273.983L57.15,-113.476L-21.397,-255.073L107.493,-255.073L57.15,-143.429L3.11,-240.55L19.448,-240.55L57.15,-176.105L84.8,-242.365L35.786,-241.458L57.15,-200.612L68.462,-231.473L53.032,-231.473" style="fill:white;fill-rule:nonzero;stroke:rgb(15,15,66);stroke-width:3px;"/>
            </g>
            <g transform="matrix(1,0,0,1,12.367384,0)">
                <text x="340.904px" y="566.691px" style="font-family:'Square721BT-Roman', 'Square721 BT', sans-serif;font-size:58.545px;fill:rgb(35,31,32);">V<tspan x="373.578px 414.09px " y="566.691px 566.691px ">AS</tspan>TU VID<tspan x="644.897px 674.369px " y="566.691px 566.691px ">YA</tspan></text>
            </g>
            <g transform="matrix(1,0,0,1,84.369698,0)">
                <g transform="matrix(34.4132,0,0,34.4132,544.67373,605.2646)">
                </g>
                <text x="365.965px" y="605.265px" style="font-family:'Square721BT-Roman', 'Square721 BT', sans-serif;font-size:34.413px;fill:rgb(35,31,32);">H<tspan x="404.022px 441.742px 486.067px 520.141px " y="605.265px 605.265px 605.265px 605.265px ">OMES</tspan></text>
            </g>
        </g>
    </g>
</svg>
